<?xml version="1.0" encoding="iso-8859-1"?>
<!-- Generator: Adobe Illustrator 19.0.0, SVG Export Plug-In . SVG Version: 6.00 Build 0)  -->
<svg version="1.1" id="Layer_1" xmlns="http://www.w3.org/2000/svg" xmlns:xlink="http://www.w3.org/1999/xlink" x="0px" y="0px"
	 viewBox="0 0 512 512" style="enable-background:new 0 0 512 512;" xml:space="preserve">
<rect style="fill:#A9DDF3;" width="512" height="335.996"/>
<path style="fill:#FEE8C7;" d="M432,336c0-97.202-78.798-176-176-176S80,238.798,80,336"/>
<path style="fill:#FDD9A1;" d="M368,336c0-61.856-50.144-112-112-112s-112,50.144-112,112"/>
<path style="fill:#FBB03B;" d="M312,336c0-30.928-25.072-56-56-56s-56,25.072-56,56"/>
<rect y="335.849" style="fill:#29ABE2;" width="512" height="176.151"/>
<path style="fill:#7FCDEE;" d="M473.197,339.4c0,70.362-33.458,132.673-85.331,172.6H124.129
	c-51.871-39.927-85.325-102.238-85.325-172.598"/>
<path style="fill:#A9DDF3;" d="M394.217,339.401c0,76.335-61.882,138.217-138.217,138.217s-138.217-61.882-138.217-138.217"/>
<path d="M319.327,328.016c-4.087-31.647-30.918-55.475-63.327-55.475c-32.411,0-59.241,23.826-63.327,55.475H0v15.77h512v-15.77
	H319.327z M256,288.312c23.732,0,43.492,16.632,47.4,39.705h-94.8C212.508,304.945,232.268,288.312,256,288.312z"/>
<g>
	<rect x="159.803" y="360.608" style="fill:#FFFFFF;" width="31.54" height="15.77"/>
	<rect x="208.164" y="360.608" style="fill:#FFFFFF;" width="95.671" height="15.77"/>
	<rect x="319.606" y="360.608" style="fill:#FFFFFF;" width="32.591" height="15.77"/>
	<rect x="136.674" y="400.559" style="fill:#FFFFFF;" width="63.08" height="15.77"/>
	<rect x="312.246" y="400.559" style="fill:#FFFFFF;" width="63.08" height="15.77"/>
	<rect x="223.934" y="400.559" style="fill:#FFFFFF;" width="64.131" height="15.77"/>
	<rect x="96.723" y="447.869" style="fill:#FFFFFF;" width="111.441" height="15.77"/>
	<rect x="303.836" y="447.869" style="fill:#FFFFFF;" width="111.441" height="15.77"/>
	<rect x="239.704" y="447.869" style="fill:#FFFFFF;" width="32.591" height="15.77"/>
	<rect y="496.23" style="fill:#FFFFFF;" width="136.674" height="15.77"/>
	<rect x="375.327" y="496.23" style="fill:#FFFFFF;" width="136.674" height="15.77"/>
	<rect x="248.115" y="496.23" style="fill:#FFFFFF;" width="15.77" height="15.77"/>
</g>
<polygon points="72,163.151 50.424,141.576 61.576,130.424 72,140.849 82.425,130.424 93.575,141.576 "/>
<polygon points="168,123.151 146.425,101.576 157.575,90.424 168,100.849 178.424,90.424 189.576,101.576 "/>
<polygon points="448,283.151 426.425,261.575 437.576,250.425 448,260.849 458.424,250.425 469.576,261.575 "/>
<g>
</g>
<g>
</g>
<g>
</g>
<g>
</g>
<g>
</g>
<g>
</g>
<g>
</g>
<g>
</g>
<g>
</g>
<g>
</g>
<g>
</g>
<g>
</g>
<g>
</g>
<g>
</g>
<g>
</g>
</svg>
